# xmcd CD database file
# Copyright (C) 1995-1998 Ti Kan
#
# Track frame offsets:
#	150
#	22487
#	29800
#	53327
#	69630
#	94082
#	112750
#	144122
#	158247
#	168790
#	188610
#	207377
#	234810
#	249885
#
# Disc length: 4142 seconds
#
# Revision: 2
# Processed by: cddbd v1.4b41PL1 Copyright (c) Steve Scherf et al.
# Submitted via: CDex 1.30Release
#
DISCID=ad102c0e
DTITLE=Robert Nighthawk - Live on Maxwell St. 1964
DYEAR=1900
DGENRE=Blues
TTITLE0=Cheating and Lying Blues
TTITLE1=Juke Medley
TTITLE2=The Time Have Come
TTITLE3=Honey Hush
TTITLE4=I Need Your Love So Bad
TTITLE5=Take it Easy Baby
TTITLE6=Anna Lee - Sweet Black Angel
TTITLE7=Big World Blues
TTITLE8=Maxwell Street Jam
TTITLE9=I Got News for You
TTITLE10=All I Want for Breakfast - Them Kind of People
TTITLE11=Mama Talk to Your Daughter
TTITLE12=The Real McCoy
TTITLE13=Interview
EXTD=ID3G:   0
EXTT0=
EXTT1=
EXTT2=
EXTT3=
EXTT4=
EXTT5=
EXTT6=
EXTT7=
EXTT8=
EXTT9=
EXTT10=
EXTT11=
EXTT12=
EXTT13=
PLAYORDER=
